<?xml version="1.0" encoding="UTF-8"?> <svg xmlns="http://www.w3.org/2000/svg" id="Layer_1" width="490" height="364"><style>.st0{fill:#8dc63f}.st1{fill:#6d6e71}.st2{fill:#808285}.st3{fill:#ffde17}.st4{fill:#39b54a}.st5{fill:#fff}.st6{fill:#f3f8f5}.st7{fill:#e6e7e8}.st8{fill:#008fc5}.st9{fill:#33a544}.st10{fill:#29923b}.st11{fill:#414042}.st12{fill:#115489}.st13{fill:#1c75bc}.st14{fill:#ef4136}.st15{fill:#d1d3d4}.st16{fill:#bcbec0}.st17{fill:#3a5dab}.st18{fill:#231f20}.st19{fill:#a9aaad}.st20{fill:#057155}.st21{fill:#2d2929}.st22{fill:#fefefe}.st23{fill:#80bce1}.st24{fill:#cae2f5}.st25{fill:#e9f2fb}.st26{fill:#00aeef}.st27{fill:#9fceef}.st28{fill:#e1eef9}.st29{fill:#27aae1}.st30{fill:#8ed8f8}.st31{fill:#58595b}.st32{fill:#fde3d7}.st33{fill:#f7941d}.st34{fill:#eed6cb}.st35{fill:#47a49b}.st36{fill:#56c2b7}.st37{fill:#febe46}.st38{fill:#fbb040}.st39{fill:#21409a}.st40{fill:#939598}.st41{fill:#c49a6c}.st42{fill:#2d4989}.st43{fill:#b28d62}.st44{fill:#583818}</style><g id="Layer_2_1_"><g id="Layer_2-2"><ellipse transform="rotate(-83.033 211.581 255.585)" class="st0" cx="211.6" cy="255.6" rx="106.7" ry="188.4"></ellipse><path class="st1" d="M453.3 226.1L216.7 363 0 237.2 0 228.2 236.6 103 453.3 217.1z"></path><path class="st2" d="M453.3 217.1L216.7 354 0 228.2 236.6 91.3z"></path><path class="st3" d="M354.8 266.4L215.9 346.7 211.9 344.4 350.8 264.1z"></path><path class="st3" d="M312.7 242L173.8 322.3 169.8 320 308.7 239.7z"></path><path class="st3" d="M224.6 339.3L213.8 345.5 172.4 321.5 183.1 315.3z"></path><path class="st3" d="M246 326.9L235.2 333.1 193.7 309.2 204.5 303z"></path><path class="st3" d="M267.3 314.6L256.6 320.8 215.1 296.8 225.8 290.6z"></path><path class="st3" d="M288.7 302.2L278 308.4 236.5 284.5 247.2 278.3z"></path><path class="st3" d="M310.1 289.9L299.3 296.1 257.8 272.1 268.6 265.9z"></path><path class="st3" d="M331.4 277.5L320.7 283.8 279.2 259.8 290 253.6z"></path><path class="st3" d="M352.8 265.2L342 271.4 300.6 247.4 311.3 241.2z"></path><path class="st4" d="M210.9 290L163.5 317.4 8.7 227.7 56 200.4z"></path><path class="st5" d="M165.9 316L163.5 317.4 8.7 227.7 11.1 226.3z"></path><path class="st5" d="M210.9 290L208.5 291.4 53.6 201.7 56 200.4z"></path><path class="st6" d="M80 237.9l-5.7-.2c.1.6.4 1.2.7 1.7.4.7.3 1.2-.6 1.6-.9.4-2.1 1.2-3.1 1.7-1 .6-.9.4-2.1.3-.8-.7-.8-.8 0-1.3l3.3-1.9c-.5-.9-.9-1.9-1.3-2.8-.2-.3-.3-.5-.4-.8-.3-1.1.6-1.7 2.5-1.7 3 0 6 .2 9 .4 2.1 0 3.3 1 2.9 2.2-.4 1.2-.8 2-1.2 3-.2.4-.3.8-.3 1.2l4.6 2.7c.4.2.7.4 1 .7.3.3.3.7 0 1-.1.1-.2.1-.3.2-.7.3-1.4.3-2.1 0-.4-.1-.7-.3-1-.5l-6-3.6c-.8-.5-1-1-.8-1.5s.6-1.5.9-2.4z"></path><path class="st6" d="M88.1 236.1c4-1.8 8.6-1.6 12.4.5 3.7 2.1 4 5.4.8 7.3-4 1.8-8.7 1.5-12.5-.6-3.7-2.1-4-5.3-.7-7.2zm1.8 6.6c3.1 1.8 6.9 1.9 10.2.5 2.7-1.5 2.2-4.1-.8-5.8-3.1-1.8-6.8-1.9-10.1-.5-2.5 1.5-2.3 4.1.7 5.8zm-4.2 10.1c-3.9 1.9-8.5 1.7-12.4-.4-3.8-2.1-4.2-5.4-1-7.2 4-1.8 8.7-1.6 12.5.5 3.6 2 4 5.2.9 7.1zm-1.3-.7c2.7-1.5 2.4-4.1-.7-5.9-3.1-1.7-6.8-1.9-10-.4-2.7 1.5-2.3 4.1.6 5.8 3.1 1.8 6.8 2 10.1.5zm-16.7-19.4c.6 0 1.1.2 1.6.5.6.5-1 2.3-2.3 2.1-.5-.1-1-.1-1.5 0l-2.4 1.4c-.7-.3-1-1.1-.9-1.8.2-.9 1.1-1.5 2.5-1.9.9-.3 2-.4 3-.3z"></path><path class="st6" d="M69.1 234.8c1.3.9 1.3 1.9 0 2.5-1.6.5-3.4.2-4.8-.9.6-.3 1.1-.7 1.4-.9.4-.2 1 0 1.8 0 .7 0 1.2-.3 1.6-.7z"></path><path class="st5" d="M94.1 257.5l.5.3c1.5.9 2.1 1.7 1.7 2.5 1.6-.3 3.3.1 4.7 1l1.2.7c2.3 1.3 2.5 2.7.5 3.8l-3.2 1.8-14.8-8.6 3.1-1.7c1.9-1.2 4.4-1.1 6.3.2zm-5.3 1.6l3.9 2.3.8-.5c.8-.4.8-.9-.3-1.6l-.8-.5c-.8-.6-1.8-.7-2.7-.3l-.9.6zm6 3.5l4.5 2.7 1.2-.7c.7-.4.7-.8-.4-1.4l-1.3-.7c-1.4-.8-2.2-.8-3.1-.3l-.9.4zm-2-8.2l2-1.2 14.8 8.5-2 1.2-14.8-8.5zm15.8 1.2l.7 1.2 4.6 2.7-2 1.2L97 252l2-1.2 6.5 3.7-3.8-5.4 2-1.2 3.8 5.4 11 3.1-2.1 1.2-7.8-2zm5-6l2.7-1.6 2.1 1.2-2.7 1.6 4.3 2.5 3.5-2 2.1 1.2-5.5 3.2-14.8-8.5 5.4-3.2 2.1 1.2-3.5 2 4.3 2.4zm-10.7 21.8l2-1.2 12.7 7.3 3.3-1.9 2.1 1.2-5.4 3.1-14.7-8.5zm28.4.8l-2 1.2-3.1-1.3-2.5 1.4 2.4 1.7-1.8 1.1-12.7-9.7 2.9-1.7 16.8 7.3zm-9.3 0l2-1.1-8.5-3.8 6.5 4.9zm1.9-8.2l10.7 6.2-1.8 1-14.8-8.5 2.5-1.4 10.9 3.9-8.8-5.1 1.8-1 14.9 8.5-2.1 1.2-13.3-4.8zm10.9-3.8l2.7-1.6 2.1 1.2-2.7 1.6 4.3 2.5 3.4-2 2.1 1.2-5.5 3.2-14.8-8.5 5.4-3.2 2.1 1.2-3.5 2 4.4 2.4z"></path><path class="st7" d="M416 225.9l4.6-29.3 60-62.2s15.7 14.7 6.4 81.6c0 .6-4.7 2-5.5 2.9-2.4 2.7 6.7 1.7 2.7 6.9-5.6 7.1-23.5 10.2-23.5 10.2l-32.4-.2-12.3-9.9z"></path><path class="st8" d="M414 128.4s10.7 36.2 5.6 69.8c22.3 6.6 46 6.6 68.3 0 .3-8.2 3.8-47.6-9-63.3-12.8-15.6-65.3-10.3-65.3-10.3l.4 3.8z"></path><path class="st5" d="M210.3 137.1l205.9-11.6s14.9 46.1-3.3 112c-79.1-12.4-180.7-27.7-207.1-32.2-2.2-.4-3.6-2.4-3.2-4.6v-.1c9.5-45 7.7-63.5 7.7-63.5z"></path><path class="st4" d="M393.5 104.6l66.4 10s11.5 3.8 18.8 18.8l1.3 4.2-62.9-9.8-38.5-21.2 14.9-2z"></path><path class="st9" d="M220.2 125.9l158.4-19.3s32.8-8 45.9 17.4c.8 1.6 1.5 3.3 2 5.1l-9.4-1.4-206.5 8s-.5-4.2 9.6-9.8z"></path><path class="st10" d="M214.1 130.1l157.2-17.2s27.5-6.1 42.2 10.5l3.6 4.1-206.8 9.5c.3-2.7 1.6-5.2 3.8-6.9z"></path><path class="st11" d="M257.8 174l-49.9-2.7 2.5-32.7 161.3-6.5s46.5-6.5 46.8 32.9c.4 15.5-.5 30.9-2.7 46.2-7.3-4.7-14.8-8.6-14.8-8.6s-1.6 18.8-3.5 35.1c-13.9-2.5-28.1-5.4-28.1-5.4l4.5-50.8-89.8-5.5s-2.1 20.6-4.1 39.3l-25.8-5c2.2-20.3 3.6-36.3 3.6-36.3z"></path><path class="st12" d="M265.7 210.8c-5.8-.9-8.7-1.5-8.7-1.5s3.7-26.6 5.1-62.9c4.6-.2 8.8-.3 8.8-.3s-2.3 47.5-5.2 64.7zm12.9 2.4l-11.4-2.1s3.8-39.6 5.1-65c5-.2 3.8 0 11.9-.2-.2 17.3-5.6 67.3-5.6 67.3z"></path><path class="st8" d="M265.1 209.6c-2.3-.2-4.5-.7-6.6-1.4 0 0 3.2-25 4.6-60.6 4.6-.2 6.7 0 6.7 0s-1.9 45.2-4.7 62zm12 1.7l-8.9-1.4s4-37.4 5.4-62.5c5.1 0 4.2 0 9.7-.2-.4 17.1-6.2 64.1-6.2 64.1z"></path><path class="st13" d="M428 117.3l-3.2-.4-1.5-3.9 9.8 1.3-.9 7.3 3.6.5 1.4 3.6-10.1-1.3.9-7.1zm6.6-2.8l7.7 1 1.5 3.8-3.3-.4.2.6 2.7.3 1 2.7-2.7-.3.3.6 3.5.5 1.4 3.6-8-1-4.3-11.4zm9.6 1.2l4.4.6c2.9.1 5.4 1.9 6.6 4.5.5.8.4 1.9-.3 2.5l4.4 5.4-4.6-.6-3-4 1.4 3.8-4.4-.6-4.5-11.6zm6.7 5.7c.7 0 .9-.3.7-.8-.2-.6-.7-.9-1.3-1h-.3l.7 1.8h.2zm10.2-3.7c3.7.7 6.8 3.2 8.3 6.7 1.3 3.3-.4 5.6-3.7 5.2-3.7-.7-6.8-3.2-8.3-6.7-1.3-3.4.3-5.6 3.7-5.2zm3 7.8c.9 0 1.4-.6 1-1.6-.4-1-1.3-1.8-2.3-2-.9-.1-1.3.6-1 1.6.3 1 1.2 1.8 2.3 2z"></path><path class="st12" d="M312 175.9L284.1 174.3 286.3 145.4 314.4 145z"></path><path class="st8" d="M311.1 174.7L285.5 173.3 287.6 146.1 313.1 145.8z"></path><path class="st5" d="M301.3 149.5c-1 3-2.5 5.9-4.4 8.5-1.8 2.7-3.9 5.1-6.4 7.1 2.2-6.1 5.9-11.5 10.8-15.6zm7.5.1c-1.4 3.9-3.2 7.5-5.4 11-2.1 3.5-4.6 6.7-7.5 9.6 2.8-7.7 7.2-14.7 12.9-20.6z"></path><path class="st12" d="M257.7 172.5L232.6 171 234.3 146.9 259.6 146.5z"></path><path class="st8" d="M256.8 171.4L233.8 169.8 235.4 147.9 258.5 147.7z"></path><path class="st5" d="M248 150c-1 2.6-2.3 5-4 7.1-1.6 2.2-3.5 4.2-5.7 5.8 1-2.6 2.3-5 4-7.1 1.6-2.2 3.5-4.1 5.7-5.8zm6.7.2c-2.6 6.5-6.6 12.3-11.7 17.1 1.3-3.2 2.9-6.3 4.9-9.2 2-2.8 4.3-5.5 6.8-7.9z"></path><path class="st12" d="M232.6 171L210.9 169.7 212.6 147.6 234.3 146.9z"></path><path class="st8" d="M231.6 169.9L212 168.9 213.6 148.6 233.2 148z"></path><path class="st5" d="M224.2 150.7c-.8 2.3-1.9 4.5-3.4 6.5-1.4 2-3 3.8-4.9 5.4 1.6-4.6 4.5-8.7 8.3-11.9zm5.7.2c-2.2 5.9-5.6 11.2-10 15.7 2.2-5.9 5.6-11.3 10-15.7z"></path><path class="st12" d="M341.7 178L312 175.9 314.4 145 344.1 144.8z"></path><path class="st8" d="M340.8 176.7L313.6 174.8 315.8 145.7 343 145.5z"></path><path class="st5" d="M330.4 149.4c-2.3 6.5-6.3 12.2-11.5 16.7 1.1-3.3 2.7-6.3 4.7-9.1 1.9-2.9 4.2-5.5 6.8-7.6zm8 .1c-1.5 4.1-3.4 8.1-5.8 11.7-2.3 3.7-5 7.2-8 10.3 1.5-4.1 3.4-8.1 5.8-11.7 2.2-3.7 4.9-7.2 8-10.3z"></path><path class="st12" d="M373.7 180.1L341.7 178 344.1 144.8 376.3 144.5z"></path><path class="st8" d="M372.7 178.7L343.5 176.6 345.9 145.5 375 145.2z"></path><path class="st5" d="M361.7 149.4c-1.2 3.5-2.9 6.8-5 9.7-2 3-4.5 5.8-7.3 8 1.2-3.5 2.9-6.8 5-9.7 2-3 4.5-5.7 7.3-8zm8.4.2c-1.6 4.4-3.7 8.6-6.2 12.6s-5.4 7.7-8.7 11c1.6-4.4 3.7-8.6 6.2-12.6s5.4-7.7 8.7-11zM279.5 164c-.8 3.5-1.8 7-3 10.4-1.2 3.4-2.5 6.6-4 9.8.8-3.5 1.8-6.9 3-10.2 1.2-3.4 2.5-6.7 4-10zm.3 6.8c-.9 4.5-2.2 8.9-3.5 13.4-1.3 4.5-2.7 8.7-4.6 13 .9-4.5 2.2-8.9 3.5-13.4 1.3-4.5 2.8-8.8 4.6-13zm-11-19.1c-1.4 7.6-3.6 15.1-6.5 22.2.7-3.8 1.6-7.6 2.7-11.3 1.1-3.7 2.4-7.3 3.8-10.9zm-.7 14.2c-.8 4.5-1.9 9-3.1 13.4-1.2 4.5-2.5 8.8-4.1 13.1.8-4.5 1.9-9 3.1-13.4 1.2-4.4 2.5-8.8 4.1-13.1z"></path><path class="st12" d="M382.7 231.8c-8-1.2-11.8-2.1-11.8-2.1s5.4-36.9 7.1-85.1c6.3-.3 12-.4 12-.4s-3.5 64.8-7.3 87.6z"></path><path class="st12" d="M398.5 234.9l-15.4-2.7s5.1-53.8 6.8-87.9c6.8-.2 5.4 0 16.4-.3-.2 23.1-7.8 90.9-7.8 90.9z"></path><path class="st8" d="M381.5 229.8c-3.1-.2-6.1-.9-9-1.9 0 0 4.9-34.4 6.7-81.5 6.2-.3 9-.2 9-.2s-2.9 61.4-6.7 83.6zm15.1 3l-12.1-1.9s4.8-51.2 6.6-84.6c6.8-.2 2.7 0 13.6 0-.2 22.7-8.1 86.5-8.1 86.5z"></path><path class="st5" d="M399.8 166.7c-.5 2.4-1.2 4.7-1.8 7s-1.4 4.6-2.2 6.8c-.8 2.3-1.6 4.5-2.5 6.7-.9 2.2-1.8 4.4-2.9 6.6.5-2.4 1.2-4.7 1.8-7 .7-2.3 1.4-4.6 2.2-6.9.8-2.3 1.6-4.5 2.7-6.7 1-2.1 1.7-4.3 2.7-6.5zm.4 9.1c-.6 3.1-1.4 6.1-2.2 9.1-.8 3-1.7 6-2.7 9-1 3-1.8 5.9-2.9 8.9-1 2.9-2.1 5.8-3.3 8.7.6-3.1 1.4-6.1 2.2-9.1.8-3 1.7-6 2.7-9 1-3 1.8-5.9 2.9-8.9 1.1-2.8 2.1-5.8 3.3-8.7zm-13.6-17.2c-.4 2.4-1 4.7-1.6 7s-1.3 4.6-2 6.9c-.7 2.3-1.5 4.6-2.3 6.8s-1.7 4.5-2.7 6.7c.4-2.4 1-4.7 1.6-7 .6-2.3 1.3-4.6 2-6.9.7-2.3 1.5-4.6 2.3-6.8.9-2.3 1.7-4.5 2.7-6.7zm-.4 10.4c-.5 3.1-1.2 6.1-1.9 9.1s-1.5 6-2.3 9c-.8 3-1.7 6-2.7 8.9-1 3-1.9 5.9-3 8.9.5-3.1 1.2-6.1 1.8-9.1s1.5-6 2.3-9c.8-3 1.7-6 2.7-9 1.1-2.9 2-5.8 3.1-8.8z"></path><path class="st14" d="M293.5 139.5h-1.9l.3-2.1 5.7-.2-2.9 4.6h2.1l-.3 2.1-5.9.2 2.9-4.6zm5-2.2h4.5l-.3 2.1h-1.9v.3h1.6l-.2 1.6h-1.6v.4h2l-.3 2-4.6.1.8-6.5zm5.7-.2h2.7c1.3 0 3 .2 2.7 1.9-.1.6-.5 1.2-1 1.6l1 2.8h-2.7l-.6-2.1-.3 2.1h-2.7l.9-6.3zm2.3 2.7c.3 0 .6-.2.7-.5 0-.3-.1-.5-.5-.5h-.2v1zm7.6-3.1c1.5-.2 2.8.8 3 2.3v.9c-.4 1.9-2 3.4-4 3.4-1.5.2-2.8-.8-3-2.3v-.9c.4-1.9 2-3.4 4-3.4zm-.6 4.3c.6 0 1-.5 1.1-1 .1-.4-.2-.9-.6-1h-.2c-.6 0-1 .5-1.1 1-.1.4.2.9.6 1h.2zm8-4.4l4.5-.2-.3 2.2h-1.9v.3h1.6l-.2 1.5h-1.6v.3h2l-.3 2-4.6.2.8-6.3zm5.6-.2h2.4l1 1.6 1.4-1.7h2.3l-1 6.4h-2.7l.5-3.1-1.3 1.5-.9-1.5-.5 3.2H326l1.1-6.4zm8.4-.3h2.7l-1 6.5h-2.7l1-6.5zm3.1 3.7c.6.4 1.3.7 2 .7.3 0 .3 0 .3-.2s0-.2-.2-.2c-.6 0-1.2-.3-1.7-.7-.3-.3-.5-.8-.3-1.3.2-1.4 1.5-2.4 2.9-2.3.7 0 1.5.1 2.1.4l-.3 2.1c-.6-.3-1.2-.5-1.8-.5-.2 0-.3 0-.3.2 0 .1.1.2.2.2.6.1 1.1.3 1.6.6.4.4.5.9.4 1.4-.3 1.4-1.5 2.3-2.9 2.2-.8 0-1.6-.1-2.3-.5l.3-2.1zm5.9-.2c.6.4 1.2.7 1.9.7.3 0 .3 0 .4-.2 0-.1-.1-.2-.2-.2-.6 0-1.2-.3-1.7-.7-.3-.3-.5-.8-.3-1.3.2-1.4 1.5-2.4 2.9-2.3.7 0 1.5.1 2.1.4l-.3 2.1c-.5-.3-1.2-.5-1.8-.5-.3 0-.3 0-.3.2s0 .2.2.2c.6.1 1.2.3 1.6.6.4.3.5.9.4 1.4-.2 1.4-1.5 2.3-2.9 2.2-.8 0-1.6-.1-2.3-.5l.3-2.1zm6.5-4h2.7l-1 6.4H350l1-6.4zm7-.3c1.5-.2 2.8.8 3 2.3v.9c-.4 1.9-2 3.4-4 3.4-1.5.2-2.8-.8-3-2.3v-.9c.3-1.9 2-3.3 4-3.4zm-.7 4.4c.6 0 1-.5 1.1-1 .1-.4-.1-.8-.6-.9h-.2c-.6 0-1 .5-1.1 1-.1.4.1.8.6.9h.2zm5.1-4.4h2.3l1.4 2.7.4-2.7h2.3l-1 6.4h-2.4L364 139l-.4 2.7h-2.3l1.1-6.4zm7.1 3.6c.6.4 1.2.7 2 .7.2 0 .3 0 .3-.2 0-.1-.1-.2-.2-.2-.6 0-1.2-.3-1.7-.7-.3-.4-.4-.8-.3-1.3.2-1.4 1.5-2.4 2.9-2.3.7 0 1.5.1 2.2.4l-.3 2.1c-.6-.4-1.2-.6-1.9-.6-.2 0-.3 0-.3.2s0 .2.2.2c.6.1 1.2.3 1.6.6.4.4.5.9.4 1.4-.3 1.4-1.6 2.3-2.9 2.2-.8 0-1.6-.1-2.3-.5l.3-2z"></path><path class="st15" d="M409.9 224.6a4.8 4.8 0 0 1 5.6-2c14.8 7.2 29.5 11.3 42.3 9.7 25.2-3.1 26.1-8 27.2-9.1.3-.4 5.6.3 4.8 1.3-6.2 7.8-24.6 13.2-38.1 14-26.9 1.6-41.8-13.9-41.8-13.9z"></path><path class="st16" d="M489.3 224.3l-.9 5.6s.2 7.9-25.3 11.6c-37.1 5.4-53.9-10.2-53.9-10.2s-.9-9.1 2.4-7.5 14.2 16.1 50.3 10.9c25-3.6 27.4-10.4 27.4-10.4z"></path><path class="st11" d="M428.2 220.8c17.2 3.3 25.8 3.4 56.3-5.8 0 0-15.5 3.9-2.7 9.2-34.6 13.1-53.6-3.4-53.6-3.4zm.5-6.2c-.9.2-1.6.7-2.1 1.4-.5.5-.9 1.1-1.2 1.7-.3.5-.4 1-.5 1.5.1.8.5 1.6 1 2.2-.6.2-1.2.2-1.7 0l-.5-.2c-.2-.1-.3-.2-.4-.3-.3-.2-.6-.5-.8-.8-.4-.6-.6-1.4-.5-2.1 0-.3.1-.7.2-1 .1-.3.2-.6.4-.9.6-1.1 1.5-2 2.7-2.4.6-.2 1.2-.3 1.9-.2l.9.3c.1.3.4.6.6.8z"></path><path class="st17" d="M442.9 143.1c-1.6.7-3.2 1.6-4.6 2.5-1.5.9-2.9 1.9-4.2 3-1.1 1.2-2.3 2.4-3.6 3.5-1.5 1.1-3.1 2-4.8 2.7l-.4-.3c.2-2 .9-3.8 2.2-5.4 1.3-1.4 2.9-2.5 4.7-3.2 1.6-.9 3.4-1.6 5.2-2.1 1.7-.5 3.5-.8 5.4-1l.1.3zm27.1-11c1.9.1 3.7.5 5.5 1.2 1.8.7 3.6 1.6 5.2 2.7 1.8.9 3.3 2.2 4.4 3.8 1.1 1.7 1.6 3.8 1.4 5.8l-.4.2c-1.6-.9-3.1-2-4.5-3.3-1.3-1.1-2-2.7-3.2-3.9-1.2-1.2-2.6-2.3-4-3.4-1.5-1-3-1.9-4.6-2.7l.2-.4zm6.7 21.3c-.4 1.3-.8 2.4-1.1 3.4s-.6 2.1-.9 3.1c-.3 1-.5 1.9-.7 2.9-.2.9-.3 1.8-.4 2.7v1.7c.1.5.4.9.7 1.3l.2.2s.2 0 .2.2c.2.1.5.1.8 0 .4-.1.8-.3 1-.6.4-.4.6-.9.5-1.5.7.4 1.1 1 1.2 1.8.1.8-.1 1.6-.5 2.4-.5.8-1.2 1.5-2.1 1.8-.5.2-.9.3-1.4.3-.5.1-1 .1-1.4 0-.9-.2-1.8-.6-2.5-1.2-.7-.5-1.4-1.2-1.8-2-.5-.8-.8-1.6-.9-2.5-.1-.8-.1-1.6 0-2.4.1-1.4.4-2.8 1-4 .5-1.2 1.2-2.3 2-3.4 1.3-2 3.6-3.5 6.1-4.2zm-35.2 4.5c-.4 1.3-.8 2.4-1.1 3.4-.3 1-.7 2.1-.9 3.1-.2 1-.5 1.9-.7 2.9-.2.9-.3 1.8-.4 2.7v1.8c.1.5.4.9.7 1.3l.2.2s.2 0 .2.2c.2.1.5.1.8 0 .4-.1.8-.3 1-.6.4-.4.6-.9.5-1.5.7.4 1.1 1 1.2 1.8.1.8-.1 1.6-.5 2.4-.5.8-1.2 1.5-2.1 1.8-.5.2-.9.3-1.4.3-.5.1-1 .1-1.4 0-.9-.2-1.8-.6-2.5-1.2-.7-.5-1.4-1.2-1.8-2-.5-.8-.8-1.6-.9-2.5-.2-.8-.2-1.6-.1-2.4.1-1.4.4-2.8 1-4 .5-1.2 1.2-2.3 2-3.4 1.4-2.1 3.7-3.6 6.2-4.3z"></path><path class="st11" d="M451.9 209.3c5 .3 10-.2 14.8-1.4-3.9 4.2-10.3 4.8-14.8 1.4z"></path><path class="st18" d="M238.8 210.7c.6-9.6-2.3-19.9-14.1-21.2-8-.9-15.4 6.8-16.1 16.4l30.2 4.8z"></path><path class="st1" d="M240.3 208.8c-.5 8.2-6.5 14.9-14.6 16.2-2.8 0-5.6-.4-8.3-1.4-5-2.7-4.2-9.5-3.8-16.6.3-5.4-.5-10.2 3-13 3.5-1.9 7.4-2.8 11.3-2.7 7.6.6 13 8.4 12.4 17.5z"></path><ellipse transform="matrix(.06515 -.9979 .9979 .06515 .167 417.055)" class="st11" cx="222.7" cy="208.4" rx="16.5" ry="13.3"></ellipse><ellipse transform="rotate(-86.269 222.152 209.125) scale(1.00002)" class="st15" cx="222.2" cy="209.1" rx="9.6" ry="8"></ellipse><path class="st5" d="M220.5 203.2c1.2-.5 2.5-.5 3.7 0 1.2.6 2.2 1.7 2.7 3 .4 1.2.5 2.5.2 3.8-.3 1.2-1.1 2.3-2.2 2.9.1-1.9-.2-3.8-.8-5.6-.2-.8-.6-1.5-1.1-2.1-.6-.6-1.5-1.1-2.5-2z"></path><path class="st5" d="M238.8 210.7c.6-9.6-2.3-19.9-14.1-21.2-8-.9-15.4 6.8-16.1 16.4l-3.2-.5s5-26.8 5.4-26.8c.3 0 33.6 4.9 33.6 4.9l-2.5 27.6-3.1-.4z"></path><path class="st18" d="M363.2 229.9c.7-11.2-2.7-23.1-16.4-24.7-9.5-1.1-17.9 7.9-18.6 19.1l35 5.6z"></path><path class="st1" d="M365.1 226.9c-.5 9.4-7.5 17.2-16.8 18.8-3.2 0-6.5-.5-9.5-1.6-5.7-3-4.8-10.9-4.3-19.1.4-6.3-.6-11.8 3.5-14.9 2.7-2.1 9.7-3.2 13.1-3 8.4.4 14.7 9.3 14 19.8z"></path><ellipse transform="matrix(.06515 -.9979 .9979 .06515 96.24 555.766)" class="st11" cx="344.7" cy="226.5" rx="19" ry="15.3"></ellipse><ellipse transform="rotate(-86.269 344.19 227.321) scale(1.00002)" class="st15" cx="344.2" cy="227.3" rx="11.1" ry="9.2"></ellipse><path class="st5" d="M342.3 220.5c1.4-.5 2.9-.5 4.2 0 1.4.7 2.5 1.9 3.1 3.4.5 1.4.6 2.9.2 4.3-.4 1.4-1.3 2.6-2.5 3.4.1-2.2-.2-4.4-1-6.5-.3-.9-.7-1.7-1.3-2.4-.8-.8-1.7-1.5-2.7-2.2z"></path><path class="st5" d="M363.2 229.9c.7-11.2-2.7-23.1-16.4-24.7-9.5-1.1-17.9 7.9-18.6 19.1l-3.7-.6s5.8-31.3 6.1-31.2c.2.1 39.2 5.6 39.2 5.6l-2.9 32.2-3.7-.4z"></path><path class="st19" d="M317.3 195.8h.2l26.5 2.3h.4c0 .2-.1.3-.2.4-.2.4-.5.8-.6 1.2-.1.2-.2.4-.3.7 0 .2-.2.2-.4.2l-27.2-2.2c-.5 0-.9-.2-1.4-.3-.4-.2-.9-.4-1.3-.6-.6-.3-1-.8-1.2-1.4-.2-.3-.3-.7-.3-1.1 0-.5 0-1 .2-1.4.1-.3.3-.6.4-.9.3-.6.6-1.1.9-1.7l.6-1.1.6-1.2c.2-.4.3-.6.5-.9.3-.6.6-1.1.9-1.6.4-.5.8-.9 1.3-1.3s1-.7 1.6-.8c.7-.2 1.4-.2 2.1 0l12.5 1.1h.3v.3c-.3.5-.6 1.1-.9 1.7-.1.2-.3.4-.3.6h-.4l-11-1c-.6-.1-1.2.1-1.7.4-.6.4-1.2.8-1.6 1.4-.3.5-.6 1-.9 1.6-.2.3-.3.7-.5 1l-.6 1.3-.6 1.1-.6 1.2c0 .2-.3.5-.4.7v.2c.2 0 .4 0 .6.2l2.8-.1zm-21.6-1.8c.2-.2.3-.5.5-.8l.6-1.2.6-1.2.6-1.1.6-1.2c.2-.4.4-.7.6-1.1l.6-1.2.6-1.1c.2-.3.4-.7.6-1.1.3-.6.6-1.1.9-1.6.1-.2.3-.3.6-.2l1.8.2c.4 0 .7.3.9.6.2.4.4.7.5 1.2.4 1.7.6 3.4.9 5l1.9 10.7v.7c.1.3-.1.5-.4.6l-8.7-.8.2-.4.9-1.8.3-.5c0 .2.2 0 .2 0l4.8.4h.2c.1-.2.1-.4 0-.6l-.5-2.7-.8-4.6-.8-4.3-.2-1.2-.7 1.3-.6 1.2-.6 1.1-.6 1.2c-.2.4-.4.7-.6 1s-.4.8-.6 1.2c-.2.4-.3.7-.5 1s-.5.8-.7 1.3c-.2.5-.3.7-.5 1-.2.3-.5 1.1-.8 1.6l-.6 1.1-.6 1.2c-.2.4-.4.7-.5 1s-.4.8-.6 1.2c-.1.2-.2.3-.3.5h-.2l-2.7-.2c.2-.6.6-1.1.8-1.7l-7.6-.7c.1-.2.2-.5.3-.7.2-.5.5-1 .8-1.6.1-.2.3-.4.5-.3 2.3.2 4.7.4 7 .6.3.1.6-.1.6-.4v-.2-.2l.3-.6c.2-.6.6-1.1.8-1.6h.2z"></path><path class="st20" d="M342.9 201.6l-1 1.9c0 .2-.2.5-.3.6-.2.1-.4 0-.6 0l-22.9-2c-.6 0-1.2-.1-1.8-.2-.8-.2-1.5-.6-2.2-1.1-.8-.7-1.4-1.5-1.8-2.5-.2-.6-.4-1.2-.5-1.8l.2.3c.2.5.5.9 1 1.3s1 .6 1.6.8c.8.2 1.6.3 2.4.3l25.6 2.3.3.1zm-39.2-15.7l.8 4.3-.2.3-1.3 2.4-.8 1.5c1 .2 2 .2 3 .3l.5 2.7-4.2-.4h-.6c-.1 0-.2.4-.3.6l-.3.5-.9 1.8-.2.4-.8 1.5c0 .1-.2.2-.3.2l-2.7-.2.5-1 1.6-3.1 1.3-2.5 1.5-3c.5-.8.9-1.7 1.3-2.5s1-2 1.5-2.9c.2-.2.4-.6.6-.9zm13.6 9.9l-2.9-.2c.2-.5.5-.9.7-1.4.4-.9.9-1.7 1.3-2.7s.6-1.3 1-2c.5-1 1.3-1.8 2.3-2.2.4-.1.7-.2 1.1-.2l10.5.9h.3c-.1.2-.1.3-.2.5l-1 1.9c-.1.2-.2.3-.4.2-2.7-.2-5.4-.5-8-.7-.8-.1-1.5.2-2.1.8-.4.5-.8 1-1 1.6-.4.8-.9 1.7-1.3 2.5l-.3 1zm-12.1-13.4l2 .2c.3.1.5.2.6.4.2.3.4.7.5 1 .1.4.2.8.3 1.3l2.4 13.6c0 .5.2 1 .3 1.5v.6c0 .3-.2.5-.5.5l-2-.2c.3-.2.3-.5.3-.9s-.1-.9-.2-1.4c-.8-4.6-1.6-9.1-2.4-13.7-.1-.6-.2-1.1-.4-1.7-.2-.4-.5-.9-.9-1.2zm-9.5 11.8c-.3.5-.6 1.1-.8 1.6-.1.2-.3.4-.3.6v.2l-2-.2-5.4-.5h-.6l.5-1c.2-.5.5-.9.7-1.4.1-.2.3-.3.5-.3l7.4 1z"></path><path class="st21" d="M333.8 195.1l1.2-2.4c0-.1.1-.2.3-.2h.6c-.2.3-.3.6-.5.9-.4.9-.9 1.7-1.3 2.7 0 .2-.2.3-.4.2h-.6v-.2-2.1-.4s0 .2-.2.3l-.9 1.8c-.3.6-.2.5-.8.4h-.2c.1-.3.2-.5.3-.8.5-.9 1-1.9 1.4-2.7 0-.1.2-.2.3-.2h.8V195.3v-.2zm-.9-1.6zm-6.7.3c.1.2.1.3 0 .5v1.3c0 .2 0 .2-.2.2h-.7v-1.3c0-.4 0-.3-.2-.3-.2-.1-.4 0-.5.2-.1.2-.4.8-.6 1.1 0 .2-.2.3-.3.2h-.6c.1-.3.2-.6.4-.9.5-.9.9-1.9 1.4-2.7 0 0 .1-.2.3-.2H326.9c.3.1.5.4.4.7v.1c-.1.4-.4.8-.9.9l-.2.2zm-1-.5c.3.2.7.2 1.1 0 .1-.1.3-.3.3-.5v-.2c-.2-.2-.8-.3-.9 0-.1.3-.3.4-.5.7zm1.3 2.5c.2-.3.4-.5.6-.8l2.7-2.7c.1-.2.3-.3.5-.2h.6c0 .5 0 1-.2 1.5s0 1.5-.2 2.3c0 0 0 .2-.2.2h-.7v-.4c0-.5 0-.5-.3-.5h-.9c-.2 0-.4 0-.5.2 0 .2-.3.3-.5.5h-.2l-.7-.1zm2.1-1.4h1v-.2-.8-.4l-1 1.4zm6.3 1.9c0-.2.2-.4.3-.6.1-.2.1 0 .2 0 .4.3.9.3 1.3 0 .1-.1.2-.2.2-.3.1-.1.1-.2 0-.3l-.5-.3c-.3-.1-.5-.5-.4-.9.1-.3.3-.6.6-.8.5-.3 1-.5 1.6-.4.2 0 .5.1.7.2l-.3.6h-.3c-.3-.1-.6-.1-.9 0-.2.1-.3.2-.4.3-.1.2-.1.4.2.5.1.1.2.1.2.2l.3.2c.2.1.3.4.2.7-.1.2-.3.4-.5.6-.3.4-.8.7-1.4.7-.4.1-.7.1-1.1 0 .1-.2 0-.3 0-.4zm-12.6-4.3h-1.1c.1-.2.1-.3.2-.5h.2l2.9.2c0 .3-.2.4-.2.6-.1.2 0 0-.2 0h-.8c-.1 0-.3 0-.3.2l-1 1.9c-.2.3-.3.6-.5.9s0 .2-.2.1h-.6c.2-.6.5-1.1.8-1.6l.8-1.8zm22.1 1.4c-.1.2-.1.3-.2.5H343l-1.4 2.7c-.1.1-.1.2-.1.3h-.7l1.6-3.2h-1.1c.1-.2.1-.4.2-.5h.2l2.7.2zm-6.3 3.4c.2-.3.3-.6.5-.9l1.3-2.5c.2-.3.2-.3.5-.3h.4l-.5 1-1.2 2.4v.3h-1z"></path><path class="st5" d="M467.3 187.1c-2.2.7-4.6 1.2-7 1.2-2.4.2-4.7 0-7-.6 4.5-1.4 9.3-1.6 14-.6zm3.1 4.5c-5.8 1.8-11.9 2.4-18 1.7 2.9-.9 5.9-1.5 8.9-1.8 3.1-.4 6.1-.3 9.1.1z"></path><path class="st23" d="M216.6 283.9L119 227.5 119 205.4 216.6 261.8z"></path><path class="st24" d="M313.3 226.9L215.7 283.4 215.7 261.3 313.3 204.8z"></path><path class="st25" d="M215.7 261.3L119 205.4 216.5 148.5 313.3 204.8z"></path><path class="st26" d="M130.3 202.8L137.4 206.9 137.4 124.2 208.9 165.6 208.9 248.2 216.1 252.3 216.1 161.4 130.3 111.8z"></path><path class="st26" d="M216.2 252.5l-.2-.1-7.2-4.2v-82.7l-71.3-41.2V207l-.2-.1-7.2-4.2v-91.2l.2.1 85.8 49.6v91.3zm-7.1-4.4l6.9 4v-90.7L130.4 112v90.7l6.9 4V124l.2.1 71.6 41.3v82.7z"></path><path class="st27" d="M130.3 111.8L216.1 70.5 216.1 161.4z"></path><path class="st13" d="M137.4 206.9L144.6 202.8 144.6 128.4 137.4 124.2z"></path><path class="st13" d="M216.1 252.3L223.2 248.2 223.2 165.6 294.7 124.2 294.7 206.9 301.9 202.8 301.9 111.8 216.1 161.4z"></path><path class="st28" d="M216.1 70.5L301.9 111.8 216.1 161.4z"></path><path class="st29" d="M294.7 206.9L287.5 202.8 287.6 128.4 294.7 124.2z"></path><path class="st23" d="M216.1 180.8L130.3 131.2 130.3 111.8 216.1 161.4z"></path><path class="st24" d="M301.9 131.2L216.1 180.8 216.1 161.4 301.9 111.8z"></path><path class="st5" d="M216.4 7c.8 0 1.4.6 1.4 1.4v64c0 .8-.6 1.4-1.4 1.4-.8 0-1.4-.6-1.4-1.4v-64c0-.8.6-1.4 1.4-1.4z"></path><ellipse class="st15" cx="216.2" cy="4.3" rx="4.3" ry="4.3"></ellipse><ellipse class="st5" cx="217.7" cy="3.2" rx="1.4" ry="1.4"></ellipse><path class="st26" d="M217.8 43.9L217.8 8.6 271.3 24.9z"></path><path class="st30" d="M217.8 43.9V8.5h.1l53.6 16.3h-.1l-53.6 19.1zm.1-35.3v35.2l53.4-18.9-53.4-16.3z"></path><path class="st5" d="M48.1 64.9H393.40000000000003V96.60000000000001H48.1z"></path><path class="st27" d="M394.1 97.3H47.3V64.1h346.8v33.2zM48.8 95.8h343.9V65.6H48.8v30.2z"></path><path class="st0" d="M65.3 82.1c1.6 1.1 3.4 1.7 5.4 1.9.7 0 .8-.3.8-.5s-.2-.5-.5-.6c-1.7-.2-3.3-.9-4.7-1.9-1-.9-1.5-2.1-1.4-3.4 0-3.2 2.5-5.4 6.6-5.4 2 0 4 .4 5.8 1.3v5.4c-1.5-.9-3.2-1.4-4.9-1.6-.6 0-.8.2-.8.5s.2.5.5.5c1.6.3 3.1.9 4.5 1.7 1.1.8 1.7 2.1 1.6 3.5 0 3.1-2.5 5.4-6.8 5.4-2.1 0-4.2-.5-6.1-1.3v-5.5zm13.2-.8v-8.8h6.7v8.4c0 1.5.5 2.7 2 2.7s2-1 2-2.7v-8.4h6v8.8c.1 1.8-.4 3.6-1.5 5.1-1.8 1.9-4.3 2.8-6.9 2.7-2.5.1-5-.8-6.8-2.7-1.1-1.5-1.6-3.3-1.5-5.1zm17.8.8c1.6 1.1 3.4 1.7 5.4 1.9.7 0 .8-.3.8-.5s-.2-.4-.5-.5c-1.7-.2-3.3-.9-4.7-1.9-1-.9-1.5-2.1-1.4-3.4 0-3.2 2.5-5.4 6.6-5.4 2 0 4 .4 5.8 1.3V79c-1.5-.8-3.2-1.3-4.9-1.4-.6 0-.8.2-.8.5s.2.5.5.5c1.6.3 3.1.9 4.5 1.7 1.1.8 1.7 2.1 1.6 3.5 0 3.1-2.5 5.4-6.8 5.4-2.1 0-4.2-.5-6.1-1.3v-5.8z"></path><path class="st0" d="M113.1 77.9h-4.5v-5.5h15.7V78h-4.5v10.7h-6.7V77.9zm14.4-5.5h6.5l6.1 16.1h-7.2l-.6-2.1h-3.7l-.6 2.1h-6.7l6.2-16.1zm3.8 10l-.7-3.3-.7 3.3h1.4zm8.9-10h6.7v16.1h-6.7V72.4zm7.7 0h6.1l4.8 6.9v-6.9h6.1v16.1h-6.1l-4.8-6.9v6.9h-6.1V72.4zm23.2 0h6.4l6.2 16.1h-7.2l-.6-2.1h-3.7l-.7 2.1H165l6.1-16.1zm3.7 10.1l-.7-3.3-.7 3.3h1.4zm9-10.1h6.4c2.4 0 7.6.2 7.6 4.1.1 1.5-.8 2.8-2.2 3.2 1.7.5 2.8 2.1 2.7 3.9 0 4.3-4.5 4.8-7.6 4.8h-6.8v-16zm7 6.6c.8 0 1.2-.5 1.2-1s-.4-1-1.2-1h-.3v2h.3zm0 5.4c1.1 0 1.6-.6 1.6-1.3 0-.7-.5-1.2-1.6-1.2h-.3v2.5h.3zm8-12h6.7v10.5h5v5.6h-11.7V72.4zm12.5 0H223v5.4h-5v.9h4v3.9h-4v.9h5.4v5.1h-12.1V72.4zm21.2 5.5H228v-5.5h15.8V78h-4.6v10.7h-6.7V77.9zm12-5.5h6.6c3.3 0 8 .8 8 5.2 0 1.6-.8 3-2.1 3.9l3.6 7.1h-7l-2.4-5.4v5.4h-6.8V72.4zm7.1 7.2c1.1 0 1.5-.6 1.5-1.3 0-.7-.5-1.2-1.5-1.2h-.5v2.5h.5z"></path><path class="st0" d="M266.1 72.4h6.4l6.2 16.1h-7.2l-.5-2.1h-3.7l-.6 2.1h-6.6l6-16.1zm3.7 10.1l-.7-3.3-.7 3.3h1.4zm9-10.1h6.1l4.8 6.9v-6.9h6v16.1h-6l-4.8-6.9v6.9h-6l-.1-16.1zm17.9 9.7c1.6 1.1 3.4 1.7 5.4 1.9.7 0 .8-.3.8-.5s-.2-.4-.5-.5c-1.7-.2-3.3-.9-4.7-1.9-1-.9-1.5-2.1-1.4-3.4 0-3.2 2.5-5.4 6.6-5.4 2 0 4 .4 5.8 1.3V79c-1.5-.8-3.2-1.3-4.9-1.4-.6 0-.8.2-.8.5s.3.5.5.5c1.6.3 3.1.9 4.5 1.7 1.1.8 1.7 2.1 1.6 3.5 0 3.1-2.5 5.4-6.8 5.4-2.1 0-4.2-.5-6.1-1.3v-5.8zm13.3-9.7h6.1c3.9 0 8.3 1.1 8.3 5.8 0 4.2-3.5 5.8-7.5 5.8h-.2v4.5H310V72.4zm6.9 7.5c1.2 0 1.7-.6 1.7-1.4 0-.8-.6-1.4-1.7-1.4h-.2v2.7l.2.1zm16.6-7.7c4.6.4 8.1 4.4 7.7 9-.4 4.6-4.4 8.1-9 7.7-4.4-.3-7.8-4-7.7-8.4.2-4.8 4.1-8.5 8.9-8.3h.1zm0 11c1.4 0 2.5-1.1 2.5-2.5s-1.1-2.5-2.5-2.5-2.5 1.1-2.5 2.5c.1 1.3 1.2 2.5 2.5 2.5zm9.7-10.8h6.5c3.4 0 7.9.9 7.9 5.1.1 1.5-.6 3-1.9 3.9.2 1 1.2 1.7 2.3 1.6 1.2 0 2.4-.4 3.4-1.2v5.9c-1.3.8-2.8 1.2-4.3 1.2-3.4.2-6.5-2.2-7.2-5.6v5.4h-6.7V72.4zm7.2 7.2c1 0 1.5-.6 1.5-1.3 0-.7-.5-1.2-1.5-1.2h-.5v2.5h.5z"></path><path class="st0" d="M362.6 77.9h-4.5v-5.5h15.7V78h-4.5v10.7h-6.7V77.9z"></path><path class="st31" d="M112.7 222.9L108.9 225.1 108.9 137.9 112.7 135.7z"></path><path class="st5" d="M99.1 151.3c-.8 0-1-1.1-1-2v-39.6c0-2.3 1.2-4.5 3-5.9l20.5-11.9c.3-.2.6-.3.9-.3.8 0 1 1.1 1 2v39.6c0 2.3-1.1 4.5-2.9 5.9L100 151c-.2.1-.5.2-.9.3z"></path><path class="st4" d="M122.2 92.9V133.2c0 1.9-.9 3.7-2.4 4.9L99.3 150V109.7c.1-1.9 1-3.7 2.5-4.9l20.4-11.9m.3-2.4c-.5 0-1 .2-1.4.4l-20.6 11.8c-2.2 1.6-3.6 4.2-3.6 6.9v39.6c0 2 .9 3.2 2.2 3.2.5 0 1-.2 1.4-.4l20.5-11.9c2.2-1.6 3.6-4.2 3.6-6.9V93.6c.1-2-.8-3.1-2.1-3.1z"></path><path class="st4" d="M102.4 115.5l2.1-1.2c.8-.5 2.4-1.3 2.4.3 0 .7-.3 1.3-.8 1.8.8 0 .9.5.9 1.1-.1 1.5-1.1 2.9-2.5 3.5l-2.1 1.3v-6.8zm2.2 1.5c.2-.1.4-.4.4-.7 0-.2 0-.3-.4-.2v.9zm0 2.3c.3-.2.5-.5.5-.8 0-.3-.2-.4-.5-.2v1zm2.7-6.6l2.1-1.2v6.8l-2.1 1.2v-6.8zm2.5-1.5l2.1-1.2v2.9l.9-3.4 2.3-1.3-1.2 3.9 1.3 2.9-2.4 1.4-.9-2.7v3.2l-2.1 1.3v-7zm5.7-3.3l3.7-2.1v2.3l-1.6.9v.3l1.3-.7v1.6l-1.3.7v.4l1.7-1v2.3l-3.8 2.2v-6.9zm-14.4 19.7l2.1-1.2v4.4l1.6-.9v2.4l-3.7 2.1v-6.8zm5.8-3.3l2-1.2 2 5.7-2.3 1.3-.2-.8-1.2.7-.2 1-2.1 1.2 2-7.9zm1.1 3.5l-.2-1.3-.2 1.5.4-.2zm3-5.9l1.9-1.1 1.5 2v-2.9l1.9-1.1v6.8l-1.9 1.1-1.5-2v2.9l-1.9 1.1v-6.8zm5.9-3.4l3.7-2.1v2.3l-1.6.9v.4l1.3-.7v1.5l-1.3.8v.4l1.7-1v2.2l-3.8 2.2v-6.9z"></path><path class="st32" d="M135.4 175.5c-.8-.2-1.3-.9-.9-2.5l7.1-34.7c.4-1.6 2-2.5 3.6-2.1 1.6.4 2.5 2 2.1 3.6l-10 34c-.3 1.1-1.1 1.9-1.9 1.7zm43.2 1.1c-.7.1-1.5-.3-1.9-.9-11.8-19.1-13-30.5-12.2-36.5.2-1.5 1.4-2.6 2.9-2.7 1.6-.2 3.1.9 3.4 2.6v.9c-2.1 16.4 6 29.5 9 34.3.5.9.6 1.6-.4 2.1-.2.2-.5.2-.8.2zm-14.1-37.5z"></path><path class="st5" d="M154.3 239.3c.6 4.1.2 8-1 8.8-1.2.8-2.7-1.9-3.3-6-.7-4.1-.2-8 1-8.8s2.6 2 3.3 6z"></path><path class="st5" d="M158.5 231.1c-.5 4.1-1.8 7.7-3.1 8.3s-2.1-2.5-1.7-6.7c.4-4.1 1.9-7.9 3.2-8.3 1.4-.4 2.1 2.6 1.6 6.7z"></path><path class="st32" d="M149.7 202.2s1.3 31.7 2.1 35.5m0 2.1c-.6 0-1.1-.6-1.3-1.4-.8-4-4.1-33.1-4.1-36.1 0-1.8 1.4-3.3 3.2-3.3 1.8 0 3.3 1.5 3.3 3.3 0 11-.4 32.3 0 34.9.4 1 0 2.4-1.1 2.6zm10.1-39.2s-3.5 26.8-6 29.2"></path><path class="st32" d="M155.7 231.6c-.9-.3-.8-1.7-.7-2 2.5-9.4 3.7-19.1 3.6-28.8-.1-1.8 1.3-3.3 3.1-3.4 1.8-.1 3.3 1.3 3.4 3.1-.8 10.4-3.5 20.5-7.8 29.9-.1.3-.7 1.5-1.6 1.2z"></path><path class="st14" d="M156.1 162.4h6.6c2.2 6.7 4 13.6 5.1 20.5 1.4 8.9 3.2 22.5 3.2 22.5h-29.9s1.8-13.6 3.2-22.5c1.2-7 2.9-13.8 5.1-20.5h6.7z"></path><path class="st33" d="M155.1 109s-16.1 2.1-5.7 33.2 17-14.4 17-14.4 2.8-19.9-11.3-18.8z"></path><ellipse class="st32" cx="156" cy="138.8" rx="7.5" ry="6.1"></ellipse><path class="st34" d="M154.3 127.5l-1.2 6.1c1.6 2 4.5 2.3 6.5.7.2-.1.3-.3.4-.4-.9-4.8-1.4-6.5-1.4-6.5l-4.3.1z"></path><path class="st32" d="M150.2 121c.1-1.1.1-2.3 0-3.4 0-3.5 2.8-6.3 6.3-6.3h.2c3.4 0 6.2 2.8 6.2 6.2v3.5c0 3.5-3.2 9.3-6.3 9.3s-6.4-6.4-6.4-9.3z"></path><path class="st31" d="M154.9 127c.3.2.6.4 1 .5.4.1.7.1 1.1 0 .4 0 .7-.1 1-.2.3-.1.7-.4.9-.7-.2.4-.4.7-.8.9-.4.2-.7.3-1.1.3-.4 0-.8 0-1.2-.1-.2-.1-.3-.2-.5-.3-.1-.1-.3-.2-.4-.4z"></path><path class="st35" d="M143.2 136.2l10.1-3.3 3.2 12 3.6-11.9 8.6 3.4-4.6 16.5-1.4 9.5h-13.4s-.6-4.2-1.6-10.5c-.9-5.4-2.5-10.6-4.5-15.7z"></path><path class="st36" d="M156.5 144.8L150.5 133.5 153.3 131.8z"></path><path class="st36" d="M156.5 145L162.5 133.6 159.7 132z"></path><path class="st33" d="M164 115.4l-15.8 6 .8-7.5c1.2-2.2 3.2-3.9 5.5-4.7 9.3-.2 9.5 6.2 9.5 6.2z"></path><path class="st31" d="M159.2 121.9c-.2 0-.4-.4-.4-.9s.2-.8.4-.8c-.1-.1-.2-.2-.3-.2-.3 0-.6.6-.6 1.3s.3 1.3.6 1.3.5-.4.6-1c-.1.2-.2.3-.3.3zm-4.3 0c-.2 0-.4-.4-.4-.9s.2-.8.4-.8c-.1-.1-.2-.2-.3-.2-.3 0-.6.6-.6 1.3s.3 1.3.6 1.3.5-.4.6-1c-.1.2-.2.3-.3.3z"></path><path class="st37" d="M158.5 117.7h1c.3.1.6.2.9.4.3.1.6.4.8.6.2.3.3.6.3 1-.3-.2-.6-.3-.8-.5l-.6-.6c-.2-.2-.5-.4-.7-.5-.3-.2-.5-.3-.8-.4h-.1zm-3.8-.2c-.3 0-.7.1-1 .2-.3.1-.7.2-1 .4-.3.1-.6.4-.8.6-.2.3-.3.6-.3 1 .3-.1.6-.3.8-.5l.6-.6c.2-.2.5-.4.7-.5.3-.2.5-.3.8-.4l.2-.2z"></path><path class="st33" d="M160 230.4L151.1 235.5 145.6 232.4 145.1 230.5 154.5 227.2 159.5 228.5z"></path><path class="st38" d="M159.5 228.5L150.7 233.7 145.1 230.5 154 225.4z"></path><path class="st39" d="M166.9 247.6L168.9 247.9 160.5 195.7 158.4 195.3z"></path><path class="st8" d="M119 192c9.2 6.2 16.1 21.5 15.2 34.4s-9 18.2-18.3 12c-9.2-6.2-16.1-21.6-15.2-34.4 1-12.8 9.1-18.2 18.3-12m0-4.1c-11.3-7.6-21.4-1-22.3 14.6s7.4 34.5 18.8 42.1c11.4 7.6 21.3 1 22.3-14.6s-7.4-34.5-18.8-42.1zm50.3 37.8c9.2 6.2 16.1 21.5 15.2 34.4-.9 13-9 18.2-18.3 12-9.2-6.2-16.1-21.5-15.2-34.4 1-12.9 9.1-18.2 18.3-12m0-4.9c-11.3-7.6-21.4-.9-22.5 14.9-1.1 15.8 7.2 34.9 18.5 42.4s21.4.9 22.5-14.9-7.1-34.9-18.5-42.4z"></path><path class="st40" d="M115 216.4L116 217.1 117.6 193.9 116.5 193.2z"></path><path class="st40" d="M115 216.7L116 216.8 110.2 191 109.2 191z"></path><path class="st40" d="M115.1 217.1L115.9 216.4 103.9 193.1 103.2 193.7z"></path><path class="st40" d="M115.3 217.4L115.7 216.1 99.8 199.7 99.5 200.9z"></path><path class="st40" d="M98.9 211.2L115.5 217.5 115.4 216 98.8 209.6z"></path><path class="st40" d="M101.5 222.5L115.8 217.5 115.2 216 100.9 220.9z"></path><path class="st40" d="M106.8 232.7L116 217.4 115.1 216.1 105.9 231.4z"></path><path class="st40" d="M113.8 239.8L116 217.1 115 216.4 112.8 239.1z"></path><path class="st40" d="M120.1 242.4L121.1 242.5 116 216.8 115 216.7z"></path><path class="st40" d="M126.6 240.9L127.4 240.2 115.9 216.4 115.1 217.1z"></path><path class="st40" d="M130.9 234.6L131.3 233.4 115.7 216.2 115.3 217.4z"></path><path class="st40" d="M115.5 217.5L132.3 224.9 132.2 223.4 115.5 216z"></path><path class="st40" d="M115.8 217.5L130.4 213.7 129.9 212 115.3 216z"></path><path class="st40" d="M115.9 217.4L125.7 203 124.8 201.6 115.1 216.1z"></path><path class="st26" d="M117 193.5c9.2 6.2 16.1 21.5 15.2 34.4-.9 13-9 18.2-18.2 12-9.3-6.2-16.1-21.5-15.2-34.4.9-12.9 9-18.1 18.2-12m.3-3.8c-10.7-7.2-20.3-.9-21.4 14s7 32.9 17.7 40.2c10.8 7.3 20.3.9 21.3-14s-7-33-17.7-40.2h.1z"></path><path class="st40" d="M165.3 250.1L166.3 250.8 167.8 227.6 166.8 226.9z"></path><path class="st40" d="M165.3 250.4L166.3 250.4 160.5 224.7 159.5 224.7z"></path><path class="st40" d="M165.4 250.8L166.2 250.1 154.2 226.8 153.5 227.4z"></path><path class="st40" d="M165.6 251.1L166 249.8 150.1 233.4 149.8 234.6z"></path><path class="st40" d="M149.1 244.9L165.8 251.2 165.7 249.7 149 243.3z"></path><path class="st40" d="M151.8 256.2L166.1 251.2 165.5 249.7 151.2 254.6z"></path><path class="st40" d="M157.1 266.4L166.2 251.1 165.4 249.8 156.2 265.1z"></path><path class="st40" d="M164.1 273.5L166.3 250.8 165.3 250.1 163 272.8z"></path><path class="st40" d="M170.4 276.1L171.4 276.2 166.3 250.5 165.3 250.4z"></path><path class="st40" d="M176.9 274.6L177.7 273.9 166.2 250.1 165.4 250.8z"></path><path class="st40" d="M181.2 268.3L181.6 267.1 166 249.8 165.6 251z"></path><path class="st40" d="M165.8 251.2L182.6 258.6 182.5 257.1 165.8 249.7z"></path><path class="st40" d="M166.1 251.2L180.7 247.4 180.2 245.7 165.5 249.6z"></path><path class="st40" d="M166.2 251.1L175.9 236.7 175.1 235.3 165.4 249.8z"></path><path class="st26" d="M167.3 227.2c9.2 6.2 16.1 21.5 15.2 34.4-.9 13-9 18.2-18.2 12-9.2-6.2-16.1-21.5-15.2-34.4.8-12.9 9-18.2 18.2-12m.3-3.9c-10.7-7.2-20.3-.9-21.3 14s7 32.9 17.7 40.2 20.3.9 21.4-14c1.1-14.9-7-32.9-17.7-40.2h-.1z"></path><path class="st39" d="M164.2 250.7L166.2 251.1 157.7 197.3 155.7 196.9z"></path><path class="st39" d="M159.1 217.9L163.1 217.2 159.2 193.7 155.6 194.4z"></path><path class="st39" d="M139.8 234.3c-.7-.9-1.2-1.9-1.3-3.1l-4.9-39.6c-.1-.8 0-1.5.3-2.2.2-.5.7-.7 1.2-.5l21.2 8.8c1.2.8 1.9 2.2 2 3.6l.9 8.2c.2.8 0 1.6-.4 2.3l-17.2 22.6c-.3.4-.9.5-1.4.1-.1 0-.1-.1-.1-.1l-.3-.1zm15.2-31l-17.5-7.3 3.7 29.8 14.3-18.8-.5-3.7z"></path><path class="st39" d="M113.6 217c-.4-1-.3-2 .2-3l18.8-24.7c.5-.7 1.4-.7 2.2 0 .9.8 1.5 1.9 1.7 3.1l6 39.6c.2.8 0 1.7-.5 2.4-.5.5-1.3.5-1.8 0l-24.8-14.8c-.9-.6-1.5-1.5-1.8-2.6zm19.6-18.5l-13.4 17.7 17.8 10.7-4.4-28.4z"></path><path class="st33" d="M142.3 185.8c-2-2.5-3.9-5.1-5.7-7.9-.2-.4-.7-.6-1.1-.4l-10.5 6.1c-.4.2-1.2.8-1.1 1.4l.2 1.7c0 .5.3 1 .8 1.2l17.1 2.6c.5 0 1-.3 1.1-.8l.5-1.6c.3-.5-.9-1.9-1.3-2.3z"></path><path class="st38" d="M143.5 187c-1.8-1.9-5.5-7.5-6.9-9.5-.3-.5-.9-.6-1.4-.3l-11 6.6c-.5.3-.7.9-.4 1.3.2.3.4.5.7.5l18 3.1c.3.1.6 0 .8-.2.6-.4.6-1 .2-1.5 0 .1 0 .1 0 0z"></path><path class="st26" d="M139.3 208c-.8 0-1.7-.4-2.1-1.2-.7-1.2-.4-2.7.8-3.5l34.9-21.4c1.2-.7 2.7-.4 3.4.8.7 1.2.4 2.7-.8 3.5l-34.9 21.4c-.4.3-.8.4-1.3.4z"></path><path class="st33" d="M137.2 239.7L128.3 244.9 122.8 241.7 122.4 239.8 131.7 236.5 136.8 237.9z"></path><path class="st38" d="M136.8 237.9L127.9 243 122.4 239.8 131.2 234.7z"></path><path class="st32" d="M136.3 171.9s1.8 0 2.3 3.9l.3 3.4c0 1.5-.2 4.9-2.1 4.9s-2.7-3.4-2.7-4.9v-3.3c-.1-1.5.7-4 2.2-4zm42.7 1.2s1.8.5 1.4 4.3l-.5 3.4c-.3 1.6-1.2 4.8-3.1 4.3-1.9-.5-1.9-3.9-1.6-5.4l.7-3.2c.3-1.5 1.6-3.7 3.1-3.4z"></path><path class="st31" d="M287.3 242.1L283.5 244.3 283.5 157.2 287.3 155z"></path><path class="st5" d="M273.8 170.5c-.8 0-1-1.1-1-2v-39.6c0-2.3 1.2-4.5 3-5.9l20.5-11.9c.2-.2.5-.3.8-.3.8 0 1 1.1 1 2v39.6c-.1 2.3-1.2 4.5-3 5.8l-20.5 11.9c-.3.2-.5.4-.8.4z"></path><path class="st8" d="M296.9 112.1V152.4c0 1.9-.9 3.7-2.4 4.9L274 169.2V128.9c0-1.9.9-3.7 2.4-4.9l20.5-11.9m.2-2.4c-.5 0-1 .2-1.4.4L275.2 122c-2.2 1.6-3.6 4.2-3.6 6.9v39.5c0 2 .9 3.2 2.2 3.2.5 0 1-.2 1.4-.5l20.5-11.9c2.2-1.6 3.6-4.2 3.6-6.9v-39.6c0-1.8-.9-3-2.2-3z"></path><path class="st8" d="M279.1 134.1l2-1.2c.8-.4 2.4-1.3 2.4.3 0 .7-.3 1.3-.8 1.8.7 0 .9.5.9 1.1-.1 1.5-1 2.8-2.4 3.4l-2.1 1.2v-6.6zm2.2 1.5c.2-.1.4-.4.4-.6 0-.2-.1-.3-.4-.2v.8zm0 2.2c.3-.2.5-.5.5-.8 0-.3-.2-.4-.5-.2v1zm2.7-2.8v-3.5l2.1-1.2v3.5c0 .6.2 1 .6.7.5-.3.7-.9.6-1.4v-3.6l1.9-1.1v3.6c0 .8-.1 1.6-.5 2.4-.4 1-1.1 1.9-2.1 2.5-.9.5-1.7.6-2.1 0-.4-.7-.5-.8-.5-1.9zm5.7-3c.5.1 1.1.1 1.6-.2.2 0 .3-.3.3-.4s0-.2-.2-.1c-.2 0-.9.4-1.4 0s-.5-.5-.5-1.2c0-1.4.8-2.7 2.1-3.5.5-.3 1.2-.5 1.8-.5v2.2c-.5-.1-1.1 0-1.5.3-.2.1-.3.3-.3.3s0 .2.2.2c.5-.2 1-.2 1.4 0 .4.3.6.7.5 1.2-.1 1.4-.9 2.7-2.1 3.4-.6.4-1.2.5-1.9.5V132zm-13.1 18.8c.6.2 1.1.1 1.7-.2.2 0 .3-.2.3-.4h-.2c-.2 0-.9.3-1.4 0-.5-.3-.5-.5-.5-1.2 0-1.4.8-2.8 2.1-3.5.5-.3 1.2-.5 1.8-.5v2.2c-.5 0-1.1.1-1.5.3-.1.1-.2.2-.2.3 0 0 .9-.3 1.4 0s.5.5.5 1.2c0 1.4-.9 2.7-2.1 3.4-.6.4-1.2.6-1.9.6v-2.2zm5.5-4.9l-1.4.8v-2.3l4.9-2.8v2.3l-1.4.8v4.5l-2.1 1.2v-4.5zm6.4-6.1c1.6-.9 2.7 0 2.7 1.9 0 2-1 3.9-2.7 5.1-1.6.9-2.7 0-2.7-1.9.1-2 1.1-3.9 2.7-5.1zm0 4.6c.5-.3.8-.9.8-1.5s-.3-.8-.8-.6c-.5.3-.8.9-.8 1.5s.4.8.8.6zm3.2-6.3l1.9-1.1c1.2-.7 2.7-1 2.7.9 0 1.6-.9 3.1-2.4 3.8v1.9l-2.1 1.2-.1-6.7zm2.1 1.8c.3-.2.5-.5.5-.9 0-.3-.2-.5-.5-.3v1.2z"></path><path class="st11" d="M251.8 188.9c.1.3.2.5.4.8.4.6 1 .9 1.7 1 .1.1.2.1.3 0 .1-.1.2-.3.2-.5l1-7.4c.1-.5.1-1 0-1.5-.4-.6-1-.9-1.7-1.1-.7-.2-1.8-.6-2.3 0-.3.9-.5 1.8-.4 2.7-.1 2 .2 4 .8 6z"></path><path class="st41" d="M222.8 223.4c0-.5 2.7-.8 3.2-.8 5.8 1 11.6 1.7 17.5 2 0 0 3.3-7 5.4-10.7.5-1.7 2.5-1.9 4.7-.3 2.5 1.9 3.4 4.2 2.2 5.8-1.2 1.6-8.9 12.1-11.4 12 0 .1-21.5-7.5-21.6-8z"></path><path class="st41" d="M231.8 225.4c-.6 2.5-9.2-1.2-9.2-1.2-2-.9-4.7-2.7-3.7-4.8s4-1.5 6-.6c.1 0 7.5 3.9 6.9 6.6z"></path><path class="st42" d="M248.6 298.7c-12.9-38.7 15.9-66.3 16.9-67.6l4.7 5.4 1.7 11c-.7.9-20.3 11-19.9 48.3l-3.4 2.9z"></path><path class="st17" d="M293.2 274.1c-31.5 11.1-31.7-28.5-31.6-30l11.1-6 1.3 1.5c0 1-1.5 26.1 20 29.9l-.8 4.6z"></path><path class="st5" d="M253.2 301.8l-.5-4.4c-.6 1.3-1.7 2.4-3.1 2.8-1.3.3-2.1-.4-1.9-1.7l-11.4 7.2c-1 .8-1.8 2.3-.8 2.1l16.3-4.3c.8-.2 1.4-.9 1.4-1.7zm46.2-35.2l-4 2.4c.8.3 1.1 1.7.7 3.3-.2 1.4-1.1 2.7-2.4 3.3l-.2 13.4c0 1.1 1 1.6 1.3.3l5.4-21.6c.2-.8-.1-1.5-.8-1.1z"></path><path class="st14" d="M245.2 219.6s3.2-13.2 7.7-16.8c5.1-4.1 6.7-.3 7.4 2.1 1.7 6.1-4.1 13.7-7.8 21l-7.3-6.3z"></path><path class="st5" d="M259.9 200.6c3.3-2.4 14.7-1.5 15.8 3 1 4.5-8.6 14.6-2 35.4 0 5.4-17.2 10.1-18.3 3.5s-5.9-26.1-4-34.9c1.9-8.8 8.5-7 8.5-7z"></path><path class="st43" d="M258.3 197.2l-.5 3.5c-.3 1.5.5 3 1.9 3.7 1.5.7 3.3.7 4.8 0 1.6-.7 2.4-2.4 1.9-4.1-.3-2.7-.4-5.5-.3-8.3-1.7.3-7.5 3.6-7.8 5.2z"></path><path class="st31" d="M264.2 190.2c-.2 0-.4-.4-.5-.9 0-.5 0-.9.3-.9h-.3c-.3 0-.6.6-.6 1.4.1.8.3 1.3.7 1.3.3 0 .5-.5.6-1.1 0 .2-.1.2-.2.2zm-4.5.3c-.2 0-.5-.4-.5-.9s.1-.9.4-.9h-.3c-.3 0-.6.6-.6 1.4.1.8.3 1.3.7 1.3.3 0 .5-.5.6-1.1-.1.1-.2.2-.3.2z"></path><path class="st41" d="M267.9 190.8c-1.4 4.5-7.2 7-10 7.9-1 .3-2.1 0-2.7-.8-.4-.5-5.1-7.5-3.5-13.4 1-5.1 5.9-8.5 11-7.5.2 0 .4.1.6.1 4.4 1.5 6.5 7.6 4.6 13.7z"></path><path class="st11" d="M255.5 193.5c.3.3.6.4 1 .5.4.1.8.1 1.2 0 .4 0 .7-.1 1.1-.3.4-.2.7-.4.9-.8-.1.4-.4.7-.8 1-.4.2-.8.3-1.2.4-.4.1-.8.1-1.2 0l-.6-.3c-.2-.1-.3-.3-.4-.5zm3.3-6.4c-.2 0-.5-.4-.5-.9s0-.9.3-.9-.2-.2-.3 0c-.1.2-.6.6-.6 1.4 0 .8.3 1.3.7 1.3s.6-.5.6-1.1c0 .1-.1.2-.2.2zm-4.6.2c-.2 0-.4-.4-.5-.9s0-.9.3-.9c-.1-.1-.2-.1-.3 0-.3 0-.6.6-.6 1.4 0 .8.3 1.3.7 1.3s.5-.5.6-1.1c.1.1.1.2-.2.2z"></path><path class="st44" d="M257.8 183.1h1c.3.1.7.2 1 .4.3.1.6.3.9.6.2.3.4.6.4 1-.3-.1-.6-.3-.9-.5l-.6-.6c-.3-.2-.5-.4-.8-.5-.3-.2-.6-.3-1-.4zm-2.7-1c-.3 0-.7.1-1 .2-.3.1-.7.3-1 .5-.3.2-.6.4-.8.7-.2.3-.3.7-.3 1 .3-.2.6-.3.8-.6.2-.2.4-.5.6-.7.2-.2.5-.4.7-.6.4-.2.7-.3 1-.5z"></path><path class="st41" d="M286.8 233.4c-.5.2-1.5-2.5-1.4-3 .3-8 0-16.9 0-16.9s-9.8-2.2-13.9-3.4c-1.8 0-2.4-2-1.3-4.5 1.3-2.8 4.1-5.4 5.9-4.6 1.8.8 13.8 5.9 14.3 8.3.1.2-3.1 23.9-3.6 24.1z"></path><path class="st41" d="M286.7 228.4c2.7.6-1.2 9.2-1.2 9.2-.9 2-2.8 4.7-4.8 3.6-2-1-1.4-4.1-.5-6 0 .1 4-7.3 6.5-6.8z"></path><g><path class="st14" d="M284.9 214.2s-13-.6-16.4-4.7c-2.2-2-2.5-5.3-.5-7.6.7-.8 1.6-1.4 2.7-1.7 6.2-1.1 13.4 3.7 20.4 6.8l-6.2 7.2z"></path></g><g><path class="st11" d="M257.2 180.2c-2.9-.1-8 1.8-9.2-2l3.1-.2c-.7-.3-1.1-.9-1.2-1.6 6.6.2 17.7-3.6 19.7 5 1.7 7.5-3.1 12.4-3.4 14.3.2-1.2-.2-1.2 0-1.9 1.8-4.1.6-9.8-3.7-5 1.7-5 .4-8.8-5.4-8.6"></path></g><g><ellipse transform="rotate(-83.281 265.904 187.089)" class="st41" cx="265.9" cy="187.1" rx="2.7" ry="1.9"></ellipse></g></g></g></svg> 